Midnight Express (1978) 

Verenigd Koninkrijk / Verenigde Staten
Misdaad / Drama
114 minuten

      
 
 
  Geregisseerd door Alan Parker met Brad Davis, Bo Hopkins en Randy Quaid

Waargebeurd verhaal over een man die in Turkije wordt opgepakt wegens het proberen te smokkelen van drugs. 
Hij krijgt vier jaar en in de gevangenis blijkt snel dat de Turken het niet zo nauw nemen met de wetten. 
Als dan ook nog blijkt dat ze straf verlengen naar levenslang is er maar één ding dat ervoor kan zorgen dat hij dit overleeft.


English

Billy Hayes is caught attempting to smuggle drugs out of Turkey. The Turkish courts decide to make an example of him, sentencing him to more than 30 years in prison. Hayes has two opportunities for release: the appeals made by his lawyer, his family, and the American government, or the "Midnight Express". 

Postinfo :

Bron: DVD 5
Beeld :DVD
Geluid : 2.0 English
Genre: Misdaad / Drama
Subs : Dutch ( Lossles)
Cover : Yes
Menu : NO

Spotinformatie 
Categorie : Beeld 
Formaat : DVD5 
Bron : Retail
Video
ID                               : 224 (0xE0)
Format                           : MPEG Video
Format version                   : Version 2
Format profile                   : Main@Main
Format settings, Matrix          : Default
Duration                         : 32mn 25s
Bit rate mode                    : Variable
Bit rate                         : 4 047 Kbps
Nominal bit rate                 : 9 800 Kbps
Width                            : 720 pixels
Height                           : 576 pixels
Display aspect ratio             : 16/9
Frame rate                       : 25.000 fps
Standard                         : PAL
Colorimetry                      : 4:2:0
Scan type                        : Interlaced
Scan order                       : Top Field First
Bits/(Pixel*Frame)               : 0.390
Stream size                      : 939 MiB (92%)

Audio
ID                               : 128 (0x80)
Format                           : AC-3
Format/Info                      : Audio Coding 3
Duration                         : 32mn 25s
Bit rate mode                    : Constant
Bit rate                         : 192 Kbps
Channel(s)                       : 2 channels
Channel positions                : L R
Sampling rate                    : 48.0 KHz
Stream size                      : 44.5 MiB (4%) 

 
Genre : Misdaad
Drama 


Weblink :  http://www.moviemeter.nl/film/381
Weblink :  http://www.imdb.com/title/tt0077928 
 
*****************************************

Brought to you by 
Pioen

2Lions Team

meer zien??
Kom dan eens kijken op ons forum 




2Lions the site to be for all your Dutch MOVIES and more

******************************************


DON T HIT AND RUN Niet gelijk afhaken als de FILM binnen is blijf seeden. 

Don`t quit after you finished the download, but keep seeding


There are fake torrents from uploaders who use our team name.
Those are not ours, or members from our team.
We 2Lions-Team are not responsible for the fake posts on our name

Wij 2Lions-Team zijn niet verantwoordelijk voor die zieke FAKE posten die op onze naam worden gedaan  
		 
